<svg width="358" height="154" viewBox="0 0 358 154" fill="none" xmlns="http://www.w3.org/2000/svg">
<path d="M353.682 62.6257C353.682 62.6257 357.665 64.1851 358 67.4523V102.426L353.57 107.253L345.604 97.1914L353.682 62.6257Z" fill="#94ADD6"/>
<path d="M352.863 93.2187H5.80725V122.141H352.863V93.2187Z" fill="#5C5963"/>
<path d="M352.863 117.5H5.80725V122.104H352.863V117.5Z" fill="#413F47"/>
<path d="M10.721 101.795H5.80725V133.539H10.721V101.795Z" fill="#5C5963"/>
<path d="M339.462 24.4587H278.262V94.9637L306.145 95.0008C324.422 95.2979 330.155 108.478 330.155 108.478H353.645V62.6257L339.462 24.4587Z" fill="#E5EFFF"/>
<path d="M305.363 53.381H346.423L336.967 28.0229H305.363V53.381Z" fill="#C1D9FF"/>
<path d="M278.262 24.5329H345.79C343.184 14.8798 332.91 13.0605 332.91 13.0605H278.262V24.5329Z" fill="#C1D9FF"/>
<path d="M319.826 146.16C330.249 135.764 330.249 118.909 319.826 108.514C309.402 98.1178 292.503 98.1178 282.079 108.514C271.656 118.909 271.656 135.764 282.079 146.16C292.503 156.556 309.402 156.556 319.826 146.16Z" fill="#312E37"/>
<path d="M300.97 109.963C291.329 109.963 283.549 117.76 283.549 127.339C283.549 136.955 291.366 144.714 300.97 144.714C310.612 144.714 318.392 136.918 318.392 127.339C318.392 117.76 310.574 109.963 300.97 109.963ZM300.97 141.299C293.264 141.299 287.01 135.061 287.01 127.376C287.01 119.691 293.264 113.453 300.97 113.453C308.676 113.453 314.93 119.691 314.93 127.376C314.93 135.061 308.676 141.299 300.97 141.299Z" fill="#5C5963"/>
<path d="M300.97 141.262C308.68 141.262 314.93 135.028 314.93 127.339C314.93 119.65 308.68 113.416 300.97 113.416C293.26 113.416 287.01 119.65 287.01 127.339C287.01 135.028 293.26 141.262 300.97 141.262Z" fill="#5C5963"/>
<path d="M305.085 131.459C307.367 129.182 307.367 125.492 305.085 123.215C302.803 120.939 299.102 120.939 296.82 123.215C294.537 125.492 294.537 129.182 296.82 131.459C299.102 133.735 302.803 133.735 305.085 131.459Z" fill="white"/>
<path d="M138.507 146.177C148.931 135.781 148.931 118.926 138.507 108.53C128.084 98.1343 111.185 98.1343 100.761 108.53C90.3379 118.926 90.3379 135.781 100.761 146.177C111.185 156.572 128.084 156.572 138.507 146.177Z" fill="#312E37"/>
<path d="M119.644 109.963C110.002 109.963 102.222 117.76 102.222 127.339C102.222 136.955 110.039 144.714 119.644 144.714C129.285 144.714 137.065 136.918 137.065 127.339C137.102 117.76 129.285 109.963 119.644 109.963ZM119.644 141.299C111.938 141.299 105.684 135.061 105.684 127.376C105.684 119.691 111.938 113.453 119.644 113.453C127.349 113.453 133.603 119.691 133.603 127.376C133.64 135.061 127.387 141.299 119.644 141.299Z" fill="#5C5963"/>
<path d="M119.644 141.262C127.353 141.262 133.603 135.028 133.603 127.339C133.603 119.65 127.353 113.416 119.644 113.416C111.934 113.416 105.684 119.65 105.684 127.339C105.684 135.028 111.934 141.262 119.644 141.262Z" fill="#5C5963"/>
<path d="M123.767 131.475C126.049 129.199 126.049 125.508 123.767 123.232C121.485 120.955 117.784 120.955 115.502 123.232C113.219 125.508 113.219 129.199 115.502 131.475C117.784 133.751 121.485 133.751 123.767 131.475Z" fill="white"/>
<path d="M68.5577 146.169C78.9811 135.773 78.9811 118.918 68.5577 108.522C58.1344 98.1264 41.2348 98.1264 30.8115 108.522C20.3882 118.918 20.3882 135.773 30.8115 146.169C41.2349 156.565 58.1344 156.565 68.5577 146.169Z" fill="#312E37"/>
<path d="M49.6964 109.963C40.0549 109.963 32.2747 117.76 32.2747 127.339C32.2747 136.955 40.0922 144.714 49.6964 144.714C59.3006 144.714 67.118 136.918 67.118 127.339C67.1553 117.76 59.3379 109.963 49.6964 109.963ZM49.6964 141.299C41.9907 141.299 35.7367 135.061 35.7367 127.376C35.7367 119.691 41.9907 113.453 49.6964 113.453C57.4021 113.453 63.6561 119.691 63.6561 127.376C63.6561 135.061 57.4021 141.299 49.6964 141.299Z" fill="#5C5963"/>
<path d="M49.6964 141.262C57.4061 141.262 63.656 135.028 63.656 127.339C63.656 119.65 57.4061 113.416 49.6964 113.416C41.9867 113.416 35.7367 119.65 35.7367 127.339C35.7367 135.028 41.9867 141.262 49.6964 141.262Z" fill="#5C5963"/>
<path d="M53.8172 131.467C56.0996 129.191 56.0996 125.5 53.8172 123.224C51.5348 120.947 47.8344 120.947 45.552 123.224C43.2696 125.5 43.2696 129.191 45.552 131.467C47.8344 133.744 51.5348 133.744 53.8172 131.467Z" fill="white"/>
<path d="M300.97 95.4093C283.66 95.4093 269.514 109.184 268.956 126.299H274.354C274.912 112.117 286.638 100.718 300.97 100.718C315.339 100.718 327.028 112.079 327.587 126.299H332.984C332.426 109.184 318.28 95.4093 300.97 95.4093Z" fill="#413F47"/>
<path d="M119.644 95.4093C102.334 95.4093 88.1878 109.184 87.6294 126.299H93.0271C93.5855 112.117 105.312 100.718 119.644 100.718C133.975 100.718 145.702 112.079 146.26 126.299H151.658C151.099 109.184 136.991 95.4093 119.644 95.4093Z" fill="#413F47"/>
<path d="M49.6964 95.4093C32.3864 95.4093 18.2406 109.184 17.6822 126.299H23.08C23.6383 112.079 35.3272 100.718 49.6964 100.718C64.0655 100.718 75.7544 112.079 76.3128 126.299H81.7105C81.1521 109.184 67.0063 95.4093 49.6964 95.4093Z" fill="#413F47"/>
<path d="M305.363 28.0229V53.381L336.967 28.0229H305.363Z" fill="#94ADD6"/>
<path d="M319.397 73.0956C319.397 71.9076 318.355 70.9794 317.052 70.9794H308.415C307.112 70.9794 306.07 71.9447 306.07 73.0956C306.07 74.2837 307.112 75.2119 308.415 75.2119H317.052C318.355 75.2119 319.397 74.2466 319.397 73.0956Z" fill="#C1D9FF"/>
<path d="M295.349 29.4709C295.349 28.7655 294.567 28.2086 293.599 28.2086H285.633C284.665 28.2086 283.884 28.7655 283.884 29.4709V51.7103C283.884 52.4157 284.665 52.9726 285.633 52.9726H293.599C294.567 52.9726 295.349 52.4157 295.349 51.7103V29.4709Z" fill="#C1D9FF"/>
<path d="M5.84444 112.488H0V128.675H5.84444V112.488Z" fill="#5C5963"/>
<path d="M6 0H274V93.7518H6V0Z" fill="white"/>
<path d="M6 0H274V93.7518H6V0Z" fill="#96BFFD" fill-opacity="0.48"/>
</svg>
